<svg xmlns="http://www.w3.org/2000/svg" width="18" height="16" fill="none"><path fill="#FFD836" d="M8.717 4.781c0-.651-.197-1.288-.568-1.83a3.354 3.354 0 0 0-1.512-1.213 3.442 3.442 0 0 0-1.947-.187 3.394 3.394 0 0 0-1.725.901 3.272 3.272 0 0 0-.922 1.687 3.225 3.225 0 0 0 .192 1.903 3.311 3.311 0 0 0 1.24 1.478 3.425 3.425 0 0 0 1.873.555A3.41 3.41 0 0 0 7.73 7.11a3.257 3.257 0 0 0 .987-2.329Zm-5.413 0c0-.4.122-.791.35-1.123.228-.333.552-.592.93-.744a2.11 2.11 0 0 1 1.197-.111c.4.08.769.274 1.057.558.288.285.482.647.56 1.04.077.393.033.8-.127 1.168a2.03 2.03 0 0 1-.77.901 2.1 2.1 0 0 1-1.153.33 2.09 2.09 0 0 1-1.46-.591 1.996 1.996 0 0 1-.605-1.428h.021Z"/><path fill="#FFD836" d="M13.326 6.906h-1.348a4.716 4.716 0 0 0-2.176.52A4.597 4.597 0 0 0 8.13 8.882a4.717 4.717 0 0 0-2.087-.488h-1.37c-.613 0-1.22.118-1.788.347a4.683 4.683 0 0 0-1.516.99A4.517 4.517 0 0 0 0 12.964v.637c0 .45.183.883.51 1.202a1.76 1.76 0 0 0 1.23.498h7.217c.425.003.838-.146 1.158-.42a1.69 1.69 0 0 0 .58-1.068h5.566c.461 0 .904-.179 1.23-.497A1.68 1.68 0 0 0 18 12.113v-.638a4.517 4.517 0 0 0-1.369-3.23 4.729 4.729 0 0 0-3.305-1.339ZM9.391 13.58a.42.42 0 0 1-.127.3.44.44 0 0 1-.307.125H1.739a.44.44 0 0 1-.307-.125.42.42 0 0 1-.128-.3v-.617c0-.873.355-1.71.987-2.329a3.41 3.41 0 0 1 2.383-.964h1.37c.89.005 1.74.355 2.368.972.627.617.98 1.452.98 2.322v.616Zm7.305-1.466a.42.42 0 0 1-.128.3.44.44 0 0 1-.307.124h-5.587a4.51 4.51 0 0 0-1.478-2.932c.307-.439.719-.798 1.2-1.046a3.41 3.41 0 0 1 1.56-.378h1.37c.894 0 1.75.347 2.383.965.632.618.987 1.455.987 2.329v.638ZM16.022 3.294c0-.652-.198-1.289-.568-1.83A3.354 3.354 0 0 0 13.942.25a3.442 3.442 0 0 0-1.947-.188 3.395 3.395 0 0 0-1.725.902 3.272 3.272 0 0 0-.923 1.686 3.225 3.225 0 0 0 .192 1.903 3.311 3.311 0 0 0 1.241 1.478 3.425 3.425 0 0 0 3.162.305c.409-.166.78-.408 1.093-.714a3.29 3.29 0 0 0 .73-1.069c.17-.4.257-.828.257-1.26Zm-5.413 0c0-.4.121-.792.35-1.124.227-.332.551-.591.93-.743a2.11 2.11 0 0 1 1.196-.112c.401.08.769.274 1.057.559.288.284.483.646.56 1.04.077.392.033.799-.126 1.167a2.03 2.03 0 0 1-.77.902 2.1 2.1 0 0 1-1.154.33 2.09 2.09 0 0 1-1.46-.592 1.996 1.996 0 0 1-.605-1.427h.022Z"/></svg>