<svg xmlns="http://www.w3.org/2000/svg" width="20" height="20" fill="none"><path fill="#FFD836" d="M10 0C4.486 0 0 4.486 0 10s4.486 10 10 10 10-4.486 10-10S15.514 0 10 0Zm1.069 15.103v1.69H8.933V15.24c-.793-.1-1.536-.365-2.051-.734l-.363-.26.765-2.142.629.413a3.486 3.486 0 0 0 1.84.553c.721 0 1.207-.358 1.207-.89 0-.369-.162-.775-1.34-1.253-1.416-.554-2.865-1.367-2.865-3.18 0-1.387.867-2.493 2.269-2.906V3.207h2.136v1.515a4.582 4.582 0 0 1 1.666.558l.441.25-.804 2.12-.6-.343c-.277-.158-.79-.452-1.612-.452-.914 0-1.013.507-1.013.725 0 .323.106.58 1.516 1.18 1.336.544 2.704 1.363 2.704 3.297 0 1.441-.934 2.628-2.39 3.046Z"/></svg>