<svg xmlns="http://www.w3.org/2000/svg" width="40" height="44" fill="none"><path fill="#000" fill-opacity=".4" d="M26.354 25.959a.942.942 0 0 0 .387-.084c3.003-1.35 6.562-4.27 6.704-8.054a.932.932 0 0 0-.547-.887.944.944 0 0 0-1.334.816c-.103 2.741-2.886 5.2-5.598 6.42a.94.94 0 0 0-.533 1.05.935.935 0 0 0 .92.739Z"/><path fill="#000" fill-opacity=".4" d="M34.824 33.7c-.2.001-.4.014-.6.038l-2.08-6.713a16.38 16.38 0 0 0 4.745-5.745 16.291 16.291 0 0 0 1.7-7.24c0-.248-.1-.486-.276-.661a.944.944 0 0 0-.666-.274H6.588a.944.944 0 0 0-.665.274.934.934 0 0 0-.276.662c.001.941.084 1.88.247 2.808H.941a.944.944 0 0 0-.665.274.934.934 0 0 0 .665 1.598h5.395a16.44 16.44 0 0 0 6.003 8.493L8.498 42.84a.931.931 0 0 0 .357.979.943.943 0 0 0 1.471-.535l.86-3.499h18.551c.18.962.63 1.853 1.3 2.569a5.2 5.2 0 0 0 5.372 1.394 5.176 5.176 0 0 0 2.395-1.61 5.123 5.123 0 0 0 .706-5.477 5.156 5.156 0 0 0-1.91-2.158 5.196 5.196 0 0 0-2.776-.803ZM7.56 14.977h29.116a14.48 14.48 0 0 1-4.581 9.65 14.63 14.63 0 0 1-9.977 3.924 14.63 14.63 0 0 1-9.977-3.924 14.48 14.48 0 0 1-4.581-9.65Zm6.452 13.317a16.487 16.487 0 0 0 16.504-.168l1.91 6.164a5.18 5.18 0 0 0-1.763 1.504 5.147 5.147 0 0 0-.926 2.119h-18.09l2.365-9.62Zm20.812 13.832a3.307 3.307 0 0 1-1.83-.552 3.28 3.28 0 0 1-1.214-1.47 3.26 3.26 0 0 1 .714-3.572 3.31 3.31 0 0 1 3.59-.71 3.29 3.29 0 0 1 1.479 1.207 3.264 3.264 0 0 1-.411 4.136 3.307 3.307 0 0 1-2.328.96ZM29.874 5.71c.471 1.406.644 2.396.049 2.988a.936.936 0 0 0 0 1.324.941.941 0 0 0 1.33 0c1.538-1.53.802-3.725.407-4.904l-.237-.706c-.455-1.35-.712-2.275-.17-2.816a.933.933 0 0 0-.001-1.322.944.944 0 0 0-1.33-.002c-1.407 1.4-.758 3.328-.284 4.735l.236.703ZM21.404 5.71c.47 1.406.643 2.396.048 2.988a.936.936 0 0 0 0 1.324.941.941 0 0 0 1.331 0c1.537-1.53.802-3.725.406-4.904l-.236-.706c-.455-1.35-.713-2.275-.17-2.816A.934.934 0 0 0 22.117 0a.944.944 0 0 0-.665.272c-1.408 1.4-.758 3.328-.284 4.735l.236.703ZM12.812 5.883c.455 1.35.713 2.275.17 2.815a.937.937 0 0 0-.205 1.02.936.936 0 0 0 .87.578.945.945 0 0 0 .665-.274c1.409-1.4.759-3.328.285-4.735l-.236-.703c-.471-1.406-.643-2.396-.049-2.988A.934.934 0 0 0 13.648 0a.944.944 0 0 0-.665.272c-1.538 1.53-.802 3.725-.407 4.904l.237.707Z"/></svg>